# xmcd
# 
# Track frame offsets:
#     150
#     11830
#     24973
#     35009
#     46891
#     58787
#     70286
#     79305
#     91243
#     98499
#     110060
#     120890
#     134663
#     149021
#     159551
#     169319
#     180421
#     192373
#     203980
#     213772
#     225016
#     243258
# 
# Disc length: 3425
# 
# Revision: 0
# Processed by: cddbd v1.5.2PL0 Copyright (c) Steve Scherf et al.
# Submitted via: fre:ac v1.0.17
# 
DISCID=2b0d5f16
DTITLE=Charley Pride - There's A Little Bit Of Hank In Me/Burgers and Fries
DYEAR=1990
DGENRE=Country
TTITLE0=There's A Little Bit Of Hank In Me
TTITLE1=My Son Calls Another Man Daddy
TTITLE2=Moanin' The Blues
TTITLE3=A Mansion On The Hill
TTITLE4=Mind Your Own Business
TTITLE5=I Can't Help It
TTITLE6=Honky Tonk Blues
TTITLE7=I'm So Lonesome I Could Cry
TTITLE8=Low Down Blues
TTITLE9=I Could Never Be Ashamed Of You
TTITLE10=Why Don't You Love Me
TTITLE11=You Win Again
TTITLE12=Burgers and Fries
TTITLE13=The Best In The World
TTITLE14=Whose Arms Are You In Tonight
TTITLE15=Nothing's Prettier Than Rose Is
TTITLE16=Mem'ries
TTITLE17=When I Stop Leaving
TTITLE18=I Can See The Lovin' In Your Eyes
TTITLE19=One On One
TTITLE20=Where Do I Put Her Memory
TTITLE21=You Snap Your Fingers
EXTD=
EXTT0=
EXTT1=
EXTT2=
EXTT3=
EXTT4=
EXTT5=
EXTT6=
EXTT7=
EXTT8=
EXTT9=
EXTT10=
EXTT11=
EXTT12=
EXTT13=
EXTT14=
EXTT15=
EXTT16=
EXTT17=
EXTT18=
EXTT19=
EXTT20=
EXTT21=
PLAYORDER=
